<svg width="25" height="26" viewBox="0 0 25 26" fill="none" xmlns="http://www.w3.org/2000/svg">
<path d="M2 2H2.83999" stroke="black" stroke-opacity="0.2" stroke-linecap="round"/>
<path d="M2 7.25H2.83999" stroke="black" stroke-opacity="0.2" stroke-linecap="round"/>
<path d="M2 12.5H2.83999" stroke="black" stroke-opacity="0.2" stroke-linecap="round"/>
<path d="M7.03906 2H7.87906" stroke="black" stroke-opacity="0.2" stroke-linecap="round"/>
<path d="M7.03906 7.25H7.87906" stroke="black" stroke-opacity="0.2" stroke-linecap="round"/>
<path d="M7.03906 12.5H7.87906" stroke="black" stroke-opacity="0.2" stroke-linecap="round"/>
<path d="M12.0801 2H12.9201" stroke="black" stroke-opacity="0.2" stroke-linecap="round"/>
<path d="M12.0801 7.25H12.9201" stroke="black" stroke-opacity="0.2" stroke-linecap="round"/>
<path d="M12.0801 12.5H12.9201" stroke="black" stroke-opacity="0.2" stroke-linecap="round"/>
<path d="M17.1201 2H17.9601" stroke="black" stroke-opacity="0.2" stroke-linecap="round"/>
<path d="M17.1201 7.25H17.9601" stroke="black" stroke-opacity="0.2" stroke-linecap="round"/>
<path d="M17.1201 12.5H17.9601" stroke="black" stroke-opacity="0.2" stroke-linecap="round"/>
<path d="M22.1602 2H23.0002" stroke="black" stroke-opacity="0.2" stroke-linecap="round"/>
<path d="M22.1602 7.25H23.0002" stroke="black" stroke-opacity="0.2" stroke-linecap="round"/>
<path d="M22.1602 12.5H23.0002" stroke="black" stroke-opacity="0.2" stroke-linecap="round"/>
<path d="M2 17.75H2.83999" stroke="black" stroke-opacity="0.2" stroke-linecap="round"/>
<path d="M7.03906 17.75H7.87906" stroke="black" stroke-opacity="0.2" stroke-linecap="round"/>
<path d="M12.0801 17.75H12.9201" stroke="black" stroke-opacity="0.2" stroke-linecap="round"/>
<path d="M17.1201 17.75H17.9601" stroke="black" stroke-opacity="0.2" stroke-linecap="round"/>
<path d="M22.1602 17.75H23.0002" stroke="black" stroke-opacity="0.2" stroke-linecap="round"/>
<path d="M2 23H2.83999" stroke="black" stroke-opacity="0.2" stroke-linecap="round"/>
<path d="M7.03906 23H7.87906" stroke="black" stroke-opacity="0.2" stroke-linecap="round"/>
<path d="M12.0801 23H12.9201" stroke="black" stroke-opacity="0.2" stroke-linecap="round"/>
<path d="M17.1201 23H17.9601" stroke="black" stroke-opacity="0.2" stroke-linecap="round"/>
<path d="M22.1602 23H23.0002" stroke="black" stroke-opacity="0.2" stroke-linecap="round"/>
</svg>
